<?xml version="1.0" ?>
<!DOCTYPE svg  PUBLIC '-//W3C//DTD SVG 1.1//EN'  'http://www.w3.org/Graphics/SVG/1.1/DTD/svg11.dtd'>
<!-- Uploaded to: SVG Repo, www.svgrepo.com, Generator: SVG Repo Mixer Tools -->
<svg fill="#000000" width="800px" height="800px" viewBox="0 0 512 512" version="1.1" xml:space="preserve" xmlns="http://www.w3.org/2000/svg" xmlns:xlink="http://www.w3.org/1999/xlink">
<g id="_x35_25_x2C__Clinical_x2C__digital_x2C__health_x2C__healthcare_x2C__telemedicine">
<g>
<path d="M422.287,252.663c0-43.882-16.758-87.792-50.249-121.28    c-33.46-33.488-77.371-50.22-121.25-50.22c-43.911,0-87.794,16.731-121.31,50.22c-33.459,33.488-50.217,77.398-50.217,121.28    c0,43.909,16.758,87.791,50.217,121.279c33.516,33.489,77.398,50.247,121.31,50.247c43.878,0,87.79-16.758,121.25-50.247    C405.529,340.454,422.287,296.572,422.287,252.663 M256.758,109.413c-1.52-1.521-3.632-2.45-5.969-2.45    c-2.281,0-4.338,0.873-5.83,2.31l-0.172,0.169c-1.52,1.521-2.478,3.634-2.478,5.971c0,2.338,0.958,4.45,2.478,5.972    c1.523,1.549,3.636,2.479,6.001,2.479c2.309,0,4.45-0.958,5.969-2.479c1.523-1.521,2.478-3.634,2.478-5.972    C259.235,113.075,258.281,110.935,256.758,109.413z M250.789,100.035c4.225,0,8.054,1.717,10.844,4.506    c2.814,2.788,4.534,6.646,4.534,10.871s-1.748,8.084-4.534,10.873c-2.763,2.788-6.619,4.506-10.844,4.506    c-4.254,0-8.086-1.718-10.873-4.506c-2.79-2.789-4.506-6.648-4.506-10.873c0-4.252,1.716-8.111,4.478-10.871l0.281-0.226    C242.931,101.668,246.675,100.035,250.789,100.035z M394.035,258.662c1.523-1.521,2.453-3.634,2.453-5.999    c0-2.339-0.93-4.45-2.453-5.972c-1.52-1.521-3.66-2.479-5.997-2.479c-2.253,0-4.338,0.9-5.829,2.309l-0.141,0.17    c-1.551,1.521-2.481,3.661-2.481,5.972c0,2.365,0.931,4.478,2.453,5.999c1.52,1.521,3.661,2.479,5.998,2.479    S392.488,260.183,394.035,258.662z M403.417,252.663c0,4.253-1.72,8.083-4.507,10.871c-2.79,2.788-6.619,4.507-10.872,4.507    c-4.226,0-8.083-1.719-10.872-4.507c-2.787-2.788-4.507-6.646-4.507-10.871c0-4.226,1.72-8.085,4.507-10.872l0.252-0.225    c2.762-2.648,6.507-4.282,10.62-4.282c4.226,0,8.082,1.718,10.872,4.507C401.697,244.607,403.417,248.438,403.417,252.663z     M244.787,395.912c1.523,1.52,3.636,2.479,6.001,2.479c2.309,0,4.45-0.959,5.969-2.479c1.523-1.521,2.478-3.634,2.478-5.973    c0-2.337-0.954-4.477-2.478-5.97c-1.52-1.55-3.632-2.479-5.969-2.479c-2.281,0-4.338,0.873-5.83,2.31l-0.172,0.169    c-1.52,1.521-2.478,3.633-2.478,5.97C242.31,392.278,243.268,394.391,244.787,395.912z M250.789,405.318    c-4.254,0-8.086-1.718-10.873-4.506c-2.79-2.788-4.506-6.646-4.506-10.873c0-4.252,1.716-8.11,4.478-10.871l0.281-0.253    c2.762-2.647,6.507-4.253,10.62-4.253c4.225,0,8.054,1.719,10.844,4.506c2.814,2.789,4.534,6.647,4.534,10.871    c0,4.227-1.748,8.085-4.534,10.873C258.87,403.601,255.014,405.318,250.789,405.318z M107.538,246.691    c-1.52,1.521-2.478,3.661-2.478,5.972c0,2.365,0.93,4.478,2.45,5.999c1.551,1.521,3.664,2.479,6.001,2.479s4.45-0.958,5.97-2.479    c1.548-1.521,2.478-3.634,2.478-5.999c0-2.339-0.93-4.45-2.45-5.972c-1.52-1.521-3.66-2.479-5.998-2.479    c-2.253,0-4.338,0.9-5.833,2.309L107.538,246.691z M98.132,252.663c0-4.226,1.716-8.085,4.506-10.872l0.253-0.225    c2.762-2.648,6.506-4.282,10.62-4.282c4.222,0,8.083,1.718,10.869,4.507c2.79,2.816,4.51,6.646,4.51,10.872    c0,4.253-1.72,8.083-4.51,10.871c-2.759,2.788-6.616,4.507-10.869,4.507c-4.226,0-8.086-1.719-10.844-4.507    C99.848,260.746,98.132,256.888,98.132,252.663z M301.711,266.802v-28.249h-33.348c-1.888,0-3.464-1.551-3.464-3.465v-33.349    h-28.251v33.349c0,1.914-1.547,3.465-3.464,3.465h-33.319v28.249h33.319c1.917,0,3.464,1.549,3.464,3.464v33.32h28.251v-33.32    c0-1.915,1.576-3.464,3.464-3.464H301.711z M236.621,52.266c-1.888,0.282-3.661-1.014-3.945-2.9    c-0.281-1.888,1.042-3.662,2.931-3.943c32.954-4.985,66.694-0.592,97.199,12.477c29.49,12.619,55.966,33.377,75.734,61.57    c1.071,1.577,0.706,3.717-0.87,4.816c-1.551,1.07-3.691,0.704-4.79-0.846c-19.011-27.123-44.444-47.064-72.776-59.203    C300.781,51.703,268.336,47.478,236.621,52.266z M379.391,443.004c-1.889,0-3.464-1.549-3.464-3.464s1.575-3.465,3.464-3.465    h71.288c1.913,0,3.464,1.55,3.464,3.465s-1.551,3.464-3.464,3.464H379.391z M379.391,426.724c-1.889,0-3.464-1.548-3.464-3.464    c0-1.915,1.575-3.465,3.464-3.465h71.288c1.913,0,3.464,1.55,3.464,3.465c0,1.916-1.551,3.464-3.464,3.464H379.391z     M379.391,410.416c-1.889,0-3.464-1.549-3.464-3.464c0-1.887,1.575-3.465,3.464-3.465h71.288c1.913,0,3.464,1.578,3.464,3.465    c0,1.915-1.551,3.464-3.464,3.464H379.391z M379.391,394.137c-1.889,0-3.464-1.549-3.464-3.464s1.575-3.465,3.464-3.465h71.288    c1.913,0,3.464,1.55,3.464,3.465s-1.551,3.464-3.464,3.464H379.391z M41.577,449.876c-1.917,0-3.467-1.549-3.467-3.464    s1.551-3.465,3.467-3.465H348.89c1.884,0,3.464,1.55,3.464,3.465s-1.58,3.464-3.464,3.464H41.577z M221.522,468.578    c-1.913,0-3.464-1.549-3.464-3.465c0-1.915,1.551-3.464,3.464-3.464h212.651c1.913,0,3.464,1.549,3.464,3.464    c0,1.916-1.551,3.465-3.464,3.465H221.522z M455.943,468.578c-1.913,0-3.464-1.549-3.464-3.465c0-1.915,1.551-3.464,3.464-3.464    h26.588c1.916,0,3.468,1.549,3.468,3.464c0,1.916-1.552,3.465-3.468,3.465H455.943z M29.465,468.015    c-1.916,0-3.464-1.549-3.464-3.464c0-1.916,1.548-3.465,3.464-3.465h100.775c1.884,0,3.436,1.549,3.436,3.465    c0,1.915-1.551,3.464-3.436,3.464H29.465z M107.762,395.686c1.327,1.353,1.327,3.549,0,4.901c-1.351,1.353-3.548,1.353-4.899,0    c-16.673-16.646-29.939-35.46-39.826-55.514c-10.223-20.758-16.786-42.896-19.688-65.4c-0.252-1.886,1.099-3.604,2.987-3.858    c1.888-0.225,3.604,1.098,3.829,2.985c2.818,21.744,9.185,43.149,19.071,63.231C78.753,361.381,91.625,379.548,107.762,395.686z     M308.611,235.088v35.178c0,1.916-1.548,3.465-3.465,3.465h-33.318v33.319c0,1.915-1.552,3.464-3.465,3.464h-35.179    c-1.916,0-3.464-1.549-3.464-3.464V273.73h-33.319c-1.917,0-3.468-1.549-3.468-3.465v-35.178c0-1.916,1.551-3.465,3.468-3.465    h33.319v-33.348c0-1.887,1.548-3.465,3.464-3.465h35.179c1.913,0,3.465,1.578,3.465,3.465v33.348h33.318    C307.063,231.623,308.611,233.172,308.611,235.088z" style="fill-rule:evenodd;clip-rule:evenodd;"/>
</g>
</g>
<g id="Layer_1"/>
</svg>